<svg xmlns="http://www.w3.org/2000/svg" xmlns:xlink="http://www.w3.org/1999/xlink" width="512" zoomAndPan="magnify" viewBox="0 0 384 383.999986" height="512" preserveAspectRatio="xMidYMid meet" version="1.0"><defs><clipPath id="9078c7f2d3"><path d="M 205 9.550781 L 378.339844 9.550781 L 378.339844 183 L 205 183 Z M 205 9.550781 " clip-rule="nonzero"/></clipPath><clipPath id="73905c60f0"><path d="M 5.589844 369 L 366 369 L 366 374.800781 L 5.589844 374.800781 Z M 5.589844 369 " clip-rule="nonzero"/></clipPath></defs><rect x="-38.4" width="460.8" fill="#ffffff" y="-38.399999" height="460.799983" fill-opacity="1"/><rect x="-38.4" width="460.8" fill="#ffffff" y="-38.399999" height="460.799983" fill-opacity="1"/><path fill="#000000" d="M 23.753906 364.566406 L 28.425781 356.242188 C 41.957031 332.128906 52.535156 306.785156 60.167969 280.203125 C 68.976562 249.484375 73.566406 218.140625 73.941406 186.183594 L 73.957031 184.855469 L 202.457031 88.941406 L 299.0625 185.65625 L 203.265625 314.3125 L 201.945312 314.328125 C 187.117188 314.496094 172.355469 315.59375 157.667969 317.617188 C 142.976562 319.636719 128.46875 322.570312 114.144531 326.410156 C 99.820312 330.253906 85.792969 334.976562 72.058594 340.578125 C 58.328125 346.179688 44.996094 352.617188 32.070312 359.890625 Z M 79.277344 187.574219 C 78.78125 219.5625 74.128906 250.933594 65.3125 281.683594 C 58.417969 305.703125 49.132812 328.757812 37.460938 350.851562 C 49.992188 344.210938 62.871094 338.332031 76.09375 333.214844 C 89.320312 328.097656 102.796875 323.777344 116.53125 320.253906 C 130.265625 316.726562 144.160156 314.023438 158.210938 312.140625 C 172.261719 310.257812 186.378906 309.210938 200.554688 308.996094 L 292.003906 186.175781 L 201.945312 96.011719 Z M 79.277344 187.574219 " fill-opacity="1" fill-rule="nonzero"/><path fill="#000000" d="M 302.691406 192.65625 C 301.34375 192.660156 300.046875 192.402344 298.800781 191.886719 C 297.554688 191.371094 296.453125 190.636719 295.5 189.679688 L 198.4375 92.507812 C 197.96875 92.035156 197.546875 91.519531 197.175781 90.964844 C 196.804688 90.410156 196.488281 89.820312 196.234375 89.203125 C 195.980469 88.585938 195.785156 87.949219 195.65625 87.292969 C 195.523438 86.636719 195.460938 85.976562 195.460938 85.308594 C 195.460938 84.640625 195.523438 83.976562 195.65625 83.320312 C 195.785156 82.664062 195.980469 82.027344 196.234375 81.410156 C 196.488281 80.792969 196.804688 80.207031 197.175781 79.652344 C 197.546875 79.09375 197.96875 78.582031 198.4375 78.109375 L 202.367188 74.175781 C 202.839844 73.703125 203.351562 73.285156 203.90625 72.914062 C 204.460938 72.542969 205.050781 72.230469 205.664062 71.972656 C 206.28125 71.71875 206.917969 71.523438 207.574219 71.394531 C 208.226562 71.265625 208.890625 71.199219 209.558594 71.199219 C 210.222656 71.199219 210.886719 71.265625 211.539062 71.394531 C 212.195312 71.523438 212.832031 71.71875 213.449219 71.972656 C 214.066406 72.230469 214.652344 72.542969 215.207031 72.914062 C 215.761719 73.285156 216.277344 73.703125 216.746094 74.175781 L 313.808594 171.351562 C 314.28125 171.824219 314.703125 172.339844 315.074219 172.894531 C 315.441406 173.449219 315.753906 174.035156 316.011719 174.65625 C 316.265625 175.273438 316.457031 175.910156 316.589844 176.5625 C 316.71875 177.21875 316.785156 177.882812 316.785156 178.550781 C 316.785156 179.21875 316.71875 179.878906 316.589844 180.535156 C 316.457031 181.191406 316.265625 181.828125 316.011719 182.445312 C 315.753906 183.0625 315.441406 183.648438 315.074219 184.207031 C 314.703125 184.761719 314.28125 185.277344 313.808594 185.75 L 309.882812 189.679688 C 308.929688 190.636719 307.832031 191.371094 306.582031 191.886719 C 305.335938 192.402344 304.039062 192.660156 302.691406 192.65625 Z M 209.5625 76.550781 C 208.925781 76.550781 208.3125 76.671875 207.722656 76.917969 C 207.132812 77.160156 206.613281 77.507812 206.160156 77.960938 L 202.234375 81.890625 C 202.011719 82.117188 201.8125 82.359375 201.636719 82.625 C 201.460938 82.886719 201.3125 83.164062 201.191406 83.457031 C 201.070312 83.75 200.976562 84.050781 200.917969 84.363281 C 200.855469 84.671875 200.824219 84.984375 200.824219 85.300781 C 200.824219 85.617188 200.855469 85.933594 200.917969 86.242188 C 200.976562 86.554688 201.070312 86.855469 201.191406 87.148438 C 201.3125 87.441406 201.460938 87.71875 201.636719 87.980469 C 201.8125 88.246094 202.011719 88.488281 202.234375 88.710938 L 299.296875 185.886719 C 299.519531 186.109375 299.761719 186.308594 300.027344 186.484375 C 300.289062 186.660156 300.566406 186.808594 300.859375 186.929688 C 301.152344 187.050781 301.453125 187.140625 301.761719 187.203125 C 302.074219 187.265625 302.386719 187.296875 302.703125 187.296875 C 303.019531 187.296875 303.332031 187.265625 303.640625 187.203125 C 303.953125 187.140625 304.253906 187.050781 304.546875 186.929688 C 304.835938 186.808594 305.113281 186.660156 305.378906 186.484375 C 305.640625 186.308594 305.882812 186.109375 306.109375 185.886719 L 310.035156 181.953125 C 310.257812 181.730469 310.457031 181.488281 310.632812 181.222656 C 310.808594 180.960938 310.957031 180.683594 311.078125 180.390625 C 311.199219 180.097656 311.292969 179.796875 311.351562 179.484375 C 311.414062 179.175781 311.445312 178.863281 311.445312 178.542969 C 311.445312 178.226562 311.414062 177.914062 311.351562 177.605469 C 311.292969 177.292969 311.199219 176.992188 311.078125 176.699219 C 310.957031 176.40625 310.808594 176.128906 310.632812 175.867188 C 310.457031 175.601562 310.257812 175.359375 310.035156 175.136719 L 212.972656 77.960938 C 212.523438 77.507812 212 77.160156 211.410156 76.914062 C 210.820312 76.671875 210.203125 76.550781 209.5625 76.550781 Z M 209.5625 76.550781 " fill-opacity="1" fill-rule="nonzero"/><g clip-path="url(#9078c7f2d3)"><path fill="#000000" d="M 317.21875 182.335938 L 205.78125 70.761719 L 266.902344 9.570312 L 378.339844 121.152344 Z M 213.347656 70.761719 L 317.21875 174.757812 L 370.769531 121.152344 L 266.898438 17.152344 Z M 213.347656 70.761719 " fill-opacity="1" fill-rule="nonzero"/></g><path fill="#000000" d="M 30.101562 353.644531 L 153.859375 229.742188 L 157.644531 233.535156 L 33.886719 357.433594 Z M 30.101562 353.644531 " fill-opacity="1" fill-rule="nonzero"/><path fill="#000000" d="M 28.878906 373.359375 C 28.351562 373.359375 27.828125 373.328125 27.304688 373.269531 C 26.78125 373.207031 26.261719 373.117188 25.75 373 C 25.238281 372.878906 24.734375 372.730469 24.238281 372.550781 C 23.742188 372.375 23.257812 372.167969 22.785156 371.9375 C 22.316406 371.703125 21.859375 371.441406 21.414062 371.15625 C 20.972656 370.871094 20.546875 370.5625 20.140625 370.226562 C 19.734375 369.890625 19.347656 369.535156 18.980469 369.15625 C 18.617188 368.777344 18.273438 368.378906 17.953125 367.960938 C 17.632812 367.542969 17.335938 367.109375 17.066406 366.65625 C 16.796875 366.203125 16.550781 365.738281 16.335938 365.257812 C 16.117188 364.777344 15.929688 364.285156 15.769531 363.785156 C 15.605469 363.28125 15.476562 362.773438 15.371094 362.253906 C 15.269531 361.738281 15.199219 361.21875 15.15625 360.691406 C 15.113281 360.167969 15.097656 359.640625 15.117188 359.113281 C 15.132812 358.585938 15.183594 358.0625 15.257812 357.542969 C 15.335938 357.019531 15.445312 356.503906 15.582031 355.996094 C 15.714844 355.488281 15.882812 354.988281 16.074219 354.496094 C 16.269531 354.007812 16.488281 353.53125 16.738281 353.066406 C 16.988281 352.601562 17.261719 352.152344 17.5625 351.71875 C 17.859375 351.285156 18.183594 350.871094 18.53125 350.472656 C 18.878906 350.078125 19.246094 349.703125 19.636719 349.347656 C 20.027344 348.996094 20.4375 348.664062 20.863281 348.359375 C 21.292969 348.050781 21.738281 347.769531 22.199219 347.515625 C 22.65625 347.257812 23.132812 347.03125 23.617188 346.828125 C 24.105469 346.625 24.601562 346.453125 25.105469 346.308594 C 25.613281 346.164062 26.125 346.050781 26.644531 345.964844 C 27.164062 345.878906 27.6875 345.824219 28.214844 345.796875 C 28.738281 345.769531 29.265625 345.777344 29.789062 345.8125 C 30.316406 345.84375 30.835938 345.910156 31.355469 346.003906 C 31.871094 346.097656 32.382812 346.222656 32.886719 346.375 C 33.390625 346.53125 33.882812 346.710938 34.367188 346.921875 C 34.851562 347.128906 35.320312 347.367188 35.777344 347.632812 C 36.230469 347.894531 36.671875 348.183594 37.09375 348.496094 C 37.515625 348.8125 37.917969 349.148438 38.304688 349.511719 C 38.6875 349.871094 39.050781 350.25 39.390625 350.652344 C 39.730469 351.054688 40.046875 351.476562 40.339844 351.914062 C 40.632812 352.351562 40.898438 352.804688 41.136719 353.273438 C 41.378906 353.746094 41.589844 354.226562 41.777344 354.71875 C 41.960938 355.210938 42.117188 355.714844 42.246094 356.226562 C 42.375 356.738281 42.472656 357.253906 42.539062 357.777344 C 42.609375 358.300781 42.648438 358.824219 42.65625 359.351562 C 42.664062 359.878906 42.640625 360.402344 42.589844 360.929688 C 42.539062 361.453125 42.457031 361.972656 42.34375 362.488281 C 42.234375 363.003906 42.09375 363.511719 41.925781 364.007812 C 41.753906 364.507812 41.558594 364.996094 41.332031 365.472656 C 41.105469 365.949219 40.855469 366.410156 40.578125 366.859375 C 40.296875 367.304688 39.996094 367.734375 39.667969 368.148438 C 39.339844 368.5625 38.992188 368.953125 38.617188 369.324219 C 37.328125 370.621094 35.839844 371.621094 34.152344 372.320312 C 32.464844 373.019531 30.707031 373.367188 28.878906 373.359375 Z M 28.878906 351.140625 C 28.535156 351.140625 28.191406 351.164062 27.847656 351.207031 C 27.503906 351.246094 27.167969 351.308594 26.832031 351.394531 C 26.496094 351.476562 26.167969 351.582031 25.847656 351.707031 C 25.523438 351.832031 25.210938 351.972656 24.90625 352.136719 C 24.601562 352.300781 24.308594 352.480469 24.027344 352.679688 C 23.746094 352.878906 23.476562 353.09375 23.222656 353.324219 C 22.964844 353.554688 22.726562 353.804688 22.5 354.066406 C 22.273438 354.324219 22.066406 354.601562 21.875 354.886719 C 21.683594 355.175781 21.507812 355.472656 21.351562 355.78125 C 21.199219 356.089844 21.0625 356.40625 20.945312 356.730469 C 20.832031 357.058594 20.734375 357.386719 20.660156 357.726562 C 20.582031 358.0625 20.527344 358.402344 20.496094 358.746094 C 20.460938 359.089844 20.449219 359.433594 20.457031 359.78125 C 20.464844 360.125 20.496094 360.46875 20.546875 360.808594 C 20.597656 361.152344 20.667969 361.488281 20.757812 361.820312 C 20.851562 362.15625 20.964844 362.480469 21.097656 362.800781 C 21.226562 363.117188 21.378906 363.429688 21.550781 363.730469 C 21.71875 364.027344 21.90625 364.316406 22.113281 364.59375 C 22.316406 364.871094 22.539062 365.136719 22.777344 365.386719 C 23.015625 365.636719 23.269531 365.871094 23.535156 366.089844 C 23.800781 366.308594 24.082031 366.511719 24.371094 366.695312 C 24.664062 366.878906 24.964844 367.046875 25.277344 367.195312 C 25.589844 367.339844 25.910156 367.46875 26.238281 367.578125 C 26.566406 367.683594 26.898438 367.773438 27.238281 367.839844 C 27.574219 367.90625 27.917969 367.953125 28.261719 367.980469 C 28.605469 368.003906 28.949219 368.007812 29.292969 367.992188 C 29.636719 367.972656 29.980469 367.933594 30.320312 367.875 C 30.660156 367.816406 30.996094 367.738281 31.324219 367.636719 C 31.65625 367.535156 31.976562 367.414062 32.292969 367.273438 C 32.609375 367.132812 32.914062 366.976562 33.210938 366.796875 C 33.503906 366.621094 33.789062 366.425781 34.058594 366.210938 C 34.332031 366 34.589844 365.769531 34.832031 365.527344 C 35.421875 364.9375 35.914062 364.273438 36.304688 363.539062 C 36.699219 362.804688 36.976562 362.027344 37.136719 361.210938 C 37.300781 360.390625 37.339844 359.570312 37.257812 358.738281 C 37.179688 357.910156 36.976562 357.109375 36.660156 356.339844 C 36.339844 355.570312 35.917969 354.863281 35.386719 354.21875 C 34.859375 353.574219 34.25 353.019531 33.558594 352.554688 C 32.863281 352.09375 32.121094 351.742188 31.324219 351.5 C 30.527344 351.257812 29.710938 351.136719 28.878906 351.136719 Z M 28.878906 351.140625 " fill-opacity="1" fill-rule="nonzero"/><g clip-path="url(#73905c60f0)"><path fill="#000000" d="M 5.589844 369.40625 L 365.839844 369.40625 L 365.839844 374.765625 L 5.589844 374.765625 Z M 5.589844 369.40625 " fill-opacity="1" fill-rule="nonzero"/></g></svg>